<?xml version="1.0" encoding="UTF-8" standalone="no"?>
<!-- Created with Inkscape (http://www.inkscape.org/) -->

<svg
   width="228.84047mm"
   height="41.288361mm"
   viewBox="0 0 228.84048 41.288361"
   version="1.1"
   id="svg5"
   inkscape:version="1.1.2 (b8e25be833, 2022-02-05)"
   sodipodi:docname="Text_MCTF_logo.svg"
   xmlns:inkscape="http://www.inkscape.org/namespaces/inkscape"
   xmlns:sodipodi="http://sodipodi.sourceforge.net/DTD/sodipodi-0.dtd"
   xmlns="http://www.w3.org/2000/svg"
   xmlns:svg="http://www.w3.org/2000/svg">
  <sodipodi:namedview
     id="namedview7"
     pagecolor="#ffffff"
     bordercolor="#666666"
     borderopacity="1.0"
     inkscape:pageshadow="2"
     inkscape:pageopacity="0.0"
     inkscape:pagecheckerboard="0"
     inkscape:document-units="mm"
     showgrid="false"
     inkscape:zoom="0.8008768"
     inkscape:cx="553.76807"
     inkscape:cy="-62.431575"
     inkscape:window-width="2560"
     inkscape:window-height="1377"
     inkscape:window-x="-8"
     inkscape:window-y="-8"
     inkscape:window-maximized="1"
     inkscape:current-layer="layer1" />
  <defs
     id="defs2">
    <rect
       x="2442.323"
       y="259.71533"
       width="69.923363"
       height="44.950733"
       id="rect29917" />
  </defs>
  <g
     inkscape:label="Layer 1"
     inkscape:groupmode="layer"
     id="layer1"
     transform="translate(27.961957,-127.56456)">
    <path
       style="fill:#7ffd6b;fill-opacity:1;stroke-width:0.999992"
       d="m -15.641563,164.60884 -0.974431,-3.63663 -2.417971,0.64789 -2.417962,0.6479 -0.65308,-2.4373 -0.65307,-2.43733 19.4210868,-5.20385 19.4210932,-5.20388 0.65308,2.43733 0.65307,2.4373 -10.9292079,2.92846 -10.9291753,2.92848 0.97443,3.63662 0.97442,3.6366 -6.07393,1.62752 -6.0739228,1.6275 z m 6.9853928,-3.17788 -0.64789,-2.41798 -1.2186498,0.32654 -1.218661,0.32655 0.64789,2.41796 0.647891,2.41797 1.2186598,-0.32653 1.21866,-0.32655 z m -15.3976968,-8.87352 -0.65307,-2.43728 1.21865,-0.32655 1.21865,-0.32654 -0.32654,-1.21866 -0.32653,-1.21865 1.19932,-0.32137 1.199301,-0.32133 -0.32135,-1.19932 -0.321351,-1.19931 -1.19931,0.32135 -1.19933,0.32136 -0.32653,-1.21865 -0.32654,-1.21864 -1.21865,0.32652 -1.21866,0.32654 -0.65307,-2.43731 -0.65308,-2.43732 2.41797,-0.64787 2.41797,-0.64791 0.32654,1.21866 0.32654,1.21865 1.21864,-0.32654 1.218661,-0.32654 0.32654,1.21867 0.326531,1.21864 1.21866,-0.32652 1.218671,-0.32654 -0.32655,-1.21866 -0.326541,-1.21866 1.218661,-0.32655 1.218661,-0.32653 -0.32653,-1.21864 -0.32654,-1.21866 2.417951,-0.64789 2.417981,-0.64789 0.653061,2.43729 0.6530898,2.43733 -1.2186708,0.32654 -1.21866,0.32654 0.32655,1.21864 0.32653,1.21865 -1.199311,0.32136 -1.1993,0.32136 0.32136,1.1993 0.32135,1.1993 1.199301,-0.32134 1.1993,-0.32137 0.326551,1.21868 0.32653,1.21866 1.2186497,-0.32654 1.2186701,-0.32655 0.65308,2.4373 0.65307,2.43731 -2.41797,0.6479 -2.4179508,0.64789 -0.32654,-1.21866 -0.32654,-1.21867 -1.218671,0.32655 -1.218641,0.32655 -0.32654,-1.21868 -0.32654,-1.21863 -1.218661,0.32654 -1.218651,0.32654 0.326531,1.21865 0.32653,1.21865 -1.218641,0.32653 -1.21866,0.32654 0.32654,1.21868 0.32654,1.21863 -2.417981,0.64789 -2.417961,0.64788 z m 21.8584068,-5.85694 -0.65307,-2.4373 1.2186599,-0.32654 1.21864939,-0.32654 -0.32652967,-1.21865 -0.32655002,-1.21866 1.19929936,-0.32134 1.19930934,-0.32135 -0.32135,-1.19932 -0.32135967,-1.1993 -1.19930934,0.32134 -1.19928929,0.32135 -0.32653,-1.21863 -0.32655,-1.21865 -1.21864,0.32652 -1.2186701,0.32654 -0.6530699,-2.43731 -0.65308,-2.43731 2.4179699,-0.64789 2.4179501,-0.64788 0.32653962,1.21864 0.32653,1.21864 1.21866901,-0.32652 1.21863937,-0.32655 0.3265497,1.21867 0.32653,1.21865 1.2186691,-0.32653 1.2186394,-0.32654 -0.3265397,-1.21866 -0.32654,-1.21867 1.2186594,-0.32652 1.2186394,-0.32655 -0.32653,-1.21863 -0.3265397,-1.21867 2.4179885,-0.64789 2.4179591,-0.64789 0.65307,2.43729 0.65308,2.43734 -1.21867,0.32652 -1.2186497,0.32654 0.3265397,1.21866 0.32653,1.21864 -1.1992994,0.32135 -1.1993194,0.32137 0.32135,1.19932 0.3213497,1.19929 1.1993194,-0.32134 1.1993097,-0.32137 0.32654,1.21866 0.32654,1.21866 1.21865,-0.32655 1.21867,-0.32652 0.65307,2.4373 0.65308,2.4373 -2.41797,0.6479 -2.41798,0.64788 -0.32654,-1.21863 -0.3265397,-1.21867 -1.2186394,0.32653 -1.2186694,0.32655 -0.3265297,-1.21866 -0.32653,-1.21865 -1.2186491,0.32653 -1.2186494,0.32655 0.3265297,1.21865 0.32653,1.21865 -1.2186494,0.32653 -1.2186594,0.32654 0.32654,1.21867 0.3265297,1.21865 -2.41793847,0.64788 -2.41796873,0.6479 z"
       id="path35178" />
    <g
       aria-label="Mārtiņa–CTF"
       id="text1884"
       style="font-size:40.0762px;font-family:Impact;-inkscape-font-specification:Impact;text-align:center;text-anchor:middle;fill:#7ffd6b;stroke-width:0.264583">
      <path
         d="m 42.016615,139.99806 q 0.160305,0.64122 0.160305,1.60305 0,0.92175 -0.160305,1.60304 0.160305,0.64122 0.160305,1.60305 0,0.92176 -0.160305,1.60305 0.160305,0.64122 0.160305,1.60305 0,0.92175 -0.160305,1.60305 0.160305,0.64122 0.160305,1.60304 0,0.92176 -0.160305,1.60305 0.160305,0.64122 0.160305,1.60305 0,0.92175 -0.160305,1.60305 0.160305,0.64122 0.160305,1.60305 0,0.92175 -0.160305,1.60304 H 38.81052 q -0.160305,-0.68129 -0.160305,-1.60304 0,-0.96183 0.160305,-1.60305 -0.160305,-0.6813 -0.160305,-1.60305 0,-0.96183 0.160305,-1.60305 -0.160305,-0.68129 -0.160305,-1.60305 0,-0.96182 0.160305,-1.60304 -0.160305,-0.6813 -0.160305,-1.60305 0,-0.96183 0.160305,-1.60305 -0.160305,-0.68129 -0.160305,-1.60305 0,-0.96183 0.160305,-1.60305 h -1.202286 q 0.160304,0.64122 0.160304,1.60305 0,0.92176 -0.160304,1.60305 0.160304,0.64122 0.160304,1.60305 0,0.92175 -0.160304,1.60305 H 36.80671 q 0.160304,0.64122 0.160304,1.60304 0,0.92176 -0.160304,1.60305 0.160304,0.64122 0.160304,1.60305 0,0.92175 -0.160304,1.60305 h -2.404572 q -0.160305,-0.6813 -0.160305,-1.60305 0,-0.96183 0.160305,-1.60305 -0.160305,-0.68129 -0.160305,-1.60305 0,-0.96182 0.160305,-1.60304 h -0.801524 q -0.160305,-0.6813 -0.160305,-1.60305 0,-0.96183 0.160305,-1.60305 -0.160305,-0.68129 -0.160305,-1.60305 0,-0.96183 0.160305,-1.60305 h -1.202286 q 0.160305,0.64122 0.160305,1.60305 0,0.92176 -0.160305,1.60305 0.160305,0.64122 0.160305,1.60305 0,0.92175 -0.160305,1.60305 0.160305,0.64122 0.160305,1.60304 0,0.92176 -0.160305,1.60305 0.160305,0.64122 0.160305,1.60305 0,0.92175 -0.160305,1.60305 0.160305,0.64122 0.160305,1.60305 0,0.92175 -0.160305,1.60304 h -3.206096 q -0.160305,-0.68129 -0.160305,-1.60304 0,-0.96183 0.160305,-1.60305 -0.160305,-0.6813 -0.160305,-1.60305 0,-0.96183 0.160305,-1.60305 -0.160305,-0.68129 -0.160305,-1.60305 0,-0.96182 0.160305,-1.60304 -0.160305,-0.6813 -0.160305,-1.60305 0,-0.96183 0.160305,-1.60305 -0.160305,-0.68129 -0.160305,-1.60305 0,-0.96183 0.160305,-1.60305 -0.160305,-0.68129 -0.160305,-1.60304 0,-0.96183 0.160305,-1.60305 -0.160305,-0.6813 -0.160305,-1.60305 0,-0.96183 0.160305,-1.60305 h 4.00762 q 0.160305,0.64122 0.160305,1.60305 0,0.92175 -0.160305,1.60305 h 1.202286 q 0.160305,0.64122 0.160305,1.60305 0,0.92175 -0.160305,1.60304 h 0.601143 q 0.160304,0.64122 0.160304,1.60305 0,0.92176 -0.160304,1.60305 h 1.202286 q -0.160305,-0.68129 -0.160305,-1.60305 0,-0.96183 0.160305,-1.60305 h 0.601143 q -0.160305,-0.68129 -0.160305,-1.60304 0,-0.96183 0.160305,-1.60305 h 1.202286 q -0.160305,-0.6813 -0.160305,-1.60305 0,-0.96183 0.160305,-1.60305 h 4.007619 q 0.160305,0.64122 0.160305,1.60305 0,0.92175 -0.160305,1.60305 z"
         style="-inkscape-font-specification:VT323"
         id="path926" />
      <path
         d="m 58.04708,156.02854 q 0.160304,0.64122 0.160304,1.60305 0,0.92175 -0.160304,1.60304 h -3.206096 q -0.160305,-0.68129 -0.160305,-1.60304 0,-0.96183 0.160305,-1.60305 h -1.603048 q -0.160305,-0.6813 -0.160305,-1.60305 0,-0.96183 0.160305,-1.60305 h -4.809144 q 0.160305,0.64122 0.160305,1.60305 0,0.92175 -0.160305,1.60305 h 4.809144 q 0.160305,0.64122 0.160305,1.60305 0,0.92175 -0.160305,1.60304 h -6.412192 q -0.160305,-0.68129 -0.160305,-1.60304 0,-0.96183 0.160305,-1.60305 h -1.603048 q -0.160305,-0.6813 -0.160305,-1.60305 0,-0.96183 0.160305,-1.60305 h 1.603048 q -0.160305,-0.68129 -0.160305,-1.60305 0,-0.96182 0.160305,-1.60304 h 6.412192 q -0.160305,-0.6813 -0.160305,-1.60305 0,-0.96183 0.160305,-1.60305 h -5.610668 q -0.160305,-0.68129 -0.160305,-1.60305 0,-0.96183 0.160305,-1.60305 h 7.213716 q 0.160305,0.64122 0.160305,1.60305 0,0.92176 -0.160305,1.60305 h 1.603048 q 0.160304,0.64122 0.160304,1.60305 0,0.92175 -0.160304,1.60305 0.160304,0.64122 0.160304,1.60304 0,0.92176 -0.160304,1.60305 0.160304,0.64122 0.160304,1.60305 0,0.92175 -0.160304,1.60305 z m -1.603048,-19.23658 q 0.160304,0.64122 0.160304,1.60305 0,0.92175 -0.160304,1.60305 h -9.618288 q -0.160305,-0.6813 -0.160305,-1.60305 0,-0.96183 0.160305,-1.60305 z"
         style="-inkscape-font-specification:VT323"
         id="path928" />
      <path
         d="m 74.077544,146.41025 q 0.160305,0.64122 0.160305,1.60305 0,0.92175 -0.160305,1.60305 h -3.206096 q -0.160305,-0.6813 -0.160305,-1.60305 0,-0.96183 0.160305,-1.60305 h -2.805334 q 0.160305,0.64122 0.160305,1.60305 0,0.92175 -0.160305,1.60305 h -1.202286 q 0.160305,0.64122 0.160305,1.60304 0,0.92176 -0.160305,1.60305 0.160305,0.64122 0.160305,1.60305 0,0.92175 -0.160305,1.60305 H 69.2684 q 0.160305,0.64122 0.160305,1.60305 0,0.92175 -0.160305,1.60304 h -8.01524 q -0.160305,-0.68129 -0.160305,-1.60304 0,-0.96183 0.160305,-1.60305 h 2.404572 q -0.160305,-0.6813 -0.160305,-1.60305 0,-0.96183 0.160305,-1.60305 -0.160305,-0.68129 -0.160305,-1.60305 0,-0.96182 0.160305,-1.60304 -0.160305,-0.6813 -0.160305,-1.60305 0,-0.96183 0.160305,-1.60305 H 61.25316 q -0.160305,-0.68129 -0.160305,-1.60305 0,-0.96183 0.160305,-1.60305 h 4.00762 q 0.160305,0.64122 0.160305,1.60305 0,0.92176 -0.160305,1.60305 h 1.603048 q -0.160305,-0.68129 -0.160305,-1.60305 0,-0.96183 0.160305,-1.60305 h 6.01143 q 0.160305,0.64122 0.160305,1.60305 0,0.92176 -0.160305,1.60305 z"
         style="-inkscape-font-specification:VT323"
         id="path930" />
      <path
         d="m 88.50496,156.02854 q 0.160305,0.64122 0.160305,1.60305 0,0.92175 -0.160305,1.60304 h -6.412192 q -0.160305,-0.68129 -0.160305,-1.60304 0,-0.96183 0.160305,-1.60305 H 80.48972 q -0.160304,-0.6813 -0.160304,-1.60305 0,-0.96183 0.160304,-1.60305 -0.160304,-0.68129 -0.160304,-1.60305 0,-0.96182 0.160304,-1.60304 -0.160304,-0.6813 -0.160304,-1.60305 0,-0.96183 0.160304,-1.60305 h -3.206096 q -0.160304,-0.68129 -0.160304,-1.60305 0,-0.96183 0.160304,-1.60305 h 3.206096 q -0.160304,-0.68129 -0.160304,-1.60304 0,-0.96183 0.160304,-1.60305 -0.160304,-0.6813 -0.160304,-1.60305 0,-0.96183 0.160304,-1.60305 h 3.206096 q 0.160305,0.64122 0.160305,1.60305 0,0.92175 -0.160305,1.60305 0.160305,0.64122 0.160305,1.60305 0,0.92175 -0.160305,1.60304 h 4.809144 q 0.160305,0.64122 0.160305,1.60305 0,0.92176 -0.160305,1.60305 h -4.809144 q 0.160305,0.64122 0.160305,1.60305 0,0.92175 -0.160305,1.60305 0.160305,0.64122 0.160305,1.60304 0,0.92176 -0.160305,1.60305 0.160305,0.64122 0.160305,1.60305 0,0.92175 -0.160305,1.60305 z"
         style="-inkscape-font-specification:VT323"
         id="path932" />
      <path
         d="m 98.123232,139.99806 q -0.160304,-0.6813 -0.160304,-1.60305 0,-0.96183 0.160304,-1.60305 h 3.206098 q 0.1603,0.64122 0.1603,1.60305 0,0.92175 -0.1603,1.60305 z m 6.412188,16.03048 q 0.16031,0.64122 0.16031,1.60305 0,0.92175 -0.16031,1.60304 h -9.618283 q -0.160305,-0.68129 -0.160305,-1.60304 0,-0.96183 0.160305,-1.60305 h 3.206095 q -0.160304,-0.6813 -0.160304,-1.60305 0,-0.96183 0.160304,-1.60305 -0.160304,-0.68129 -0.160304,-1.60305 0,-0.96182 0.160304,-1.60304 -0.160304,-0.6813 -0.160304,-1.60305 0,-0.96183 0.160304,-1.60305 h -2.404571 q -0.160305,-0.68129 -0.160305,-1.60305 0,-0.96183 0.160305,-1.60305 h 5.610669 q 0.1603,0.64122 0.1603,1.60305 0,0.92176 -0.1603,1.60305 0.1603,0.64122 0.1603,1.60305 0,0.92175 -0.1603,1.60305 0.1603,0.64122 0.1603,1.60304 0,0.92176 -0.1603,1.60305 0.1603,0.64122 0.1603,1.60305 0,0.92175 -0.1603,1.60305 z"
         style="-inkscape-font-specification:VT323"
         id="path934" />
      <path
         d="m 112.31019,144.8072 q 0,0.92176 -0.1603,1.60305 h 1.60304 q 0.16031,0.64122 0.16031,1.60305 0,0.92175 -0.16031,1.60305 h -1.20228 q 0.1603,0.64122 0.1603,1.60304 0,0.92176 -0.1603,1.60305 0.1603,0.64122 0.1603,1.60305 0,0.92175 -0.1603,1.60305 0.1603,0.64122 0.1603,1.60305 0,0.92175 -0.1603,1.60304 h -3.2061 q -0.1603,-0.68129 -0.1603,-1.60304 0,-0.96183 0.1603,-1.60305 -0.1603,-0.6813 -0.1603,-1.60305 0,-0.96183 0.1603,-1.60305 -0.1603,-0.68129 -0.1603,-1.60305 0,-0.96182 0.1603,-1.60304 -0.1603,-0.6813 -0.1603,-1.60305 0,-0.96183 0.1603,-1.60305 -0.1603,-0.68129 -0.1603,-1.60305 0,-0.96183 0.1603,-1.60305 h 2.80534 q 0.1603,0.64122 0.1603,1.60305 z m 9.85875,4.80915 q 0.1603,0.64122 0.1603,1.60304 0,0.92176 -0.1603,1.60305 0.1603,0.64122 0.1603,1.60305 0,0.92175 -0.1603,1.60305 0.1603,0.64122 0.1603,1.60305 0,0.92175 -0.1603,1.60304 h -3.2061 q -0.1603,-0.68129 -0.1603,-1.60304 0,-0.96183 0.1603,-1.60305 -0.1603,-0.6813 -0.1603,-1.60305 0,-0.96183 0.1603,-1.60305 -0.1603,-0.68129 -0.1603,-1.60305 0,-0.96182 0.1603,-1.60304 -0.1603,-0.6813 -0.1603,-1.60305 0,-0.96183 0.1603,-1.60305 h -5.20991 q -0.1603,-0.68129 -0.1603,-1.60305 0,-0.96183 0.1603,-1.60305 h 6.4122 q 0.1603,0.64122 0.1603,1.60305 0,0.92176 -0.1603,1.60305 h 2.00381 q 0.1603,0.64122 0.1603,1.60305 0,0.92175 -0.1603,1.60305 z m -4.64884,14.42743 q 0,0.92175 -0.16031,1.60305 0.16031,0.64122 0.16031,1.60304 0,0.92176 -0.16031,1.60305 h -1.60305 q -0.1603,-0.68129 -0.1603,-1.60305 0,-0.96182 0.1603,-1.60304 h -1.60304 q -0.16031,-0.6813 -0.16031,-1.60305 0,-0.96183 0.16031,-1.60305 h 3.20609 q 0.16031,0.64122 0.16031,1.60305 z"
         style="-inkscape-font-specification:VT323"
         id="path936" />
      <path
         d="m 138.1994,156.02854 q 0.16031,0.64122 0.16031,1.60305 0,0.92175 -0.16031,1.60304 h -3.2061 q -0.1603,-0.68129 -0.1603,-1.60304 0,-0.96183 0.1603,-1.60305 h -1.60304 q -0.16031,-0.6813 -0.16031,-1.60305 0,-0.96183 0.16031,-1.60305 h -4.80915 q 0.16031,0.64122 0.16031,1.60305 0,0.92175 -0.16031,1.60305 h 4.80915 q 0.1603,0.64122 0.1603,1.60305 0,0.92175 -0.1603,1.60304 h -6.4122 q -0.1603,-0.68129 -0.1603,-1.60304 0,-0.96183 0.1603,-1.60305 h -1.60304 q -0.16031,-0.6813 -0.16031,-1.60305 0,-0.96183 0.16031,-1.60305 h 1.60304 q -0.1603,-0.68129 -0.1603,-1.60305 0,-0.96182 0.1603,-1.60304 h 6.4122 q -0.16031,-0.6813 -0.16031,-1.60305 0,-0.96183 0.16031,-1.60305 h -5.61067 q -0.16031,-0.68129 -0.16031,-1.60305 0,-0.96183 0.16031,-1.60305 h 7.21371 q 0.16031,0.64122 0.16031,1.60305 0,0.92176 -0.16031,1.60305 h 1.60305 q 0.16031,0.64122 0.16031,1.60305 0,0.92175 -0.16031,1.60305 0.16031,0.64122 0.16031,1.60304 0,0.92176 -0.16031,1.60305 0.16031,0.64122 0.16031,1.60305 0,0.92175 -0.16031,1.60305 z"
         style="-inkscape-font-specification:VT323"
         id="path938" />
      <path
         d="m 154.22986,146.41025 q 0.16031,0.64122 0.16031,1.60305 0,0.92175 -0.16031,1.60305 h -12.82438 q -0.1603,-0.6813 -0.1603,-1.60305 0,-0.96183 0.1603,-1.60305 z"
         style="-inkscape-font-specification:VT323"
         id="path940" />
      <path
         d="m 170.26033,152.82244 q 0.1603,0.64122 0.1603,1.60305 0,0.92175 -0.1603,1.60305 h -1.60305 q 0.16031,0.64122 0.16031,1.60305 0,0.92175 -0.16031,1.60304 h -8.01524 q -0.1603,-0.68129 -0.1603,-1.60304 0,-0.96183 0.1603,-1.60305 h -1.60305 q -0.1603,-0.6813 -0.1603,-1.60305 0,-0.96183 0.1603,-1.60305 h -1.60304 q -0.16031,-0.68129 -0.16031,-1.60305 0,-0.96182 0.16031,-1.60304 -0.16031,-0.6813 -0.16031,-1.60305 0,-0.96183 0.16031,-1.60305 -0.16031,-0.68129 -0.16031,-1.60305 0,-0.96183 0.16031,-1.60305 h 1.60304 q -0.1603,-0.68129 -0.1603,-1.60304 0,-0.96183 0.1603,-1.60305 h 1.60305 q -0.1603,-0.6813 -0.1603,-1.60305 0,-0.96183 0.1603,-1.60305 h 8.01524 q 0.16031,0.64122 0.16031,1.60305 0,0.92175 -0.16031,1.60305 h 1.60305 q 0.1603,0.64122 0.1603,1.60305 0,0.92175 -0.1603,1.60304 h -3.2061 q -0.1603,-0.68129 -0.1603,-1.60304 0,-0.96183 0.1603,-1.60305 h -4.80914 q 0.1603,0.64122 0.1603,1.60305 0,0.92175 -0.1603,1.60304 h -1.60305 q 0.16031,0.64122 0.16031,1.60305 0,0.92176 -0.16031,1.60305 0.16031,0.64122 0.16031,1.60305 0,0.92175 -0.16031,1.60305 0.16031,0.64122 0.16031,1.60304 0,0.92176 -0.16031,1.60305 h 1.60305 q 0.1603,0.64122 0.1603,1.60305 0,0.92175 -0.1603,1.60305 h 4.80914 q -0.1603,-0.6813 -0.1603,-1.60305 0,-0.96183 0.1603,-1.60305 z"
         style="fill:#ff0000"
         id="path942" />
      <path
         d="m 186.45109,138.39501 q 0,0.92175 -0.1603,1.60305 h -4.80915 q 0.16031,0.64122 0.16031,1.60305 0,0.92175 -0.16031,1.60304 0.16031,0.64122 0.16031,1.60305 0,0.92176 -0.16031,1.60305 0.16031,0.64122 0.16031,1.60305 0,0.92175 -0.16031,1.60305 0.16031,0.64122 0.16031,1.60304 0,0.92176 -0.16031,1.60305 0.16031,0.64122 0.16031,1.60305 0,0.92175 -0.16031,1.60305 0.16031,0.64122 0.16031,1.60305 0,0.92175 -0.16031,1.60304 h -3.20609 q -0.16031,-0.68129 -0.16031,-1.60304 0,-0.96183 0.16031,-1.60305 -0.16031,-0.6813 -0.16031,-1.60305 0,-0.96183 0.16031,-1.60305 -0.16031,-0.68129 -0.16031,-1.60305 0,-0.96182 0.16031,-1.60304 -0.16031,-0.6813 -0.16031,-1.60305 0,-0.96183 0.16031,-1.60305 -0.16031,-0.68129 -0.16031,-1.60305 0,-0.96183 0.16031,-1.60305 -0.16031,-0.68129 -0.16031,-1.60304 0,-0.96183 0.16031,-1.60305 h -4.80915 q -0.1603,-0.6813 -0.1603,-1.60305 0,-0.96183 0.1603,-1.60305 h 12.82439 q 0.1603,0.64122 0.1603,1.60305 z"
         style="fill:#ff0000"
         id="path944" />
      <path
         d="m 200.71821,146.41025 q 0.1603,0.64122 0.1603,1.60305 0,0.92175 -0.1603,1.60305 h -6.41219 q 0.1603,0.64122 0.1603,1.60304 0,0.92176 -0.1603,1.60305 0.1603,0.64122 0.1603,1.60305 0,0.92175 -0.1603,1.60305 0.1603,0.64122 0.1603,1.60305 0,0.92175 -0.1603,1.60304 h -3.2061 q -0.1603,-0.68129 -0.1603,-1.60304 0,-0.96183 0.1603,-1.60305 -0.1603,-0.6813 -0.1603,-1.60305 0,-0.96183 0.1603,-1.60305 -0.1603,-0.68129 -0.1603,-1.60305 0,-0.96182 0.1603,-1.60304 -0.1603,-0.6813 -0.1603,-1.60305 0,-0.96183 0.1603,-1.60305 -0.1603,-0.68129 -0.1603,-1.60305 0,-0.96183 0.1603,-1.60305 -0.1603,-0.68129 -0.1603,-1.60304 0,-0.96183 0.1603,-1.60305 -0.1603,-0.6813 -0.1603,-1.60305 0,-0.96183 0.1603,-1.60305 h 9.61829 q 0.1603,0.64122 0.1603,1.60305 0,0.92175 -0.1603,1.60305 h -6.41219 q 0.1603,0.64122 0.1603,1.60305 0,0.92175 -0.1603,1.60304 0.1603,0.64122 0.1603,1.60305 0,0.92176 -0.1603,1.60305 z"
         style="fill:#ff0000"
         id="path946" />
    </g>
    <text
       xml:space="preserve"
       transform="matrix(0.26458333,0,0,0.26458333,29.031816,136.79193)"
       id="text29915"
       style="font-size:40px;line-height:1.25;font-family:Impact;-inkscape-font-specification:Impact;text-align:center;white-space:pre;shape-inside:url(#rect29917)" />
  </g>
</svg>
